# xmcd
#
# Track frame offsets:
#       150
#       17834
#       36868
#       53279
#       71394
#       95516
#       124415
#       139376
#       160873
#       174014
#
# Disc length: 2557 seconds
#
# Revision: 0
# Processed by: cddbd v1.5.2PL0 Copyright (c) Steve Scherf et al.
# Submitted via: CD-DA_X-Tractor v0.23
#
DISCID=7c09fb0a
DTITLE=Drink Small - Round Two
DYEAR=2006
DGENRE=
TTITLE0=D.U.I
TTITLE1=Steal Away
TTITLE2=Thank You, Pretty Baby
TTITLE3=Don't Let Nobody Else
TTITLE4=Widow Woman
TTITLE5=I'm Tired Now
TTITLE6=Honky Tonk
TTITLE7=They Con't Make You Hate Me
TTITLE8=Bishopville Woman
TTITLE9=Can I Come Over Tonight
EXTD=
EXTT0=
EXTT1=
EXTT2=
EXTT3=
EXTT4=
EXTT5=
EXTT6=
EXTT7=
EXTT8=
EXTT9=
PLAYORDER=
